<svg xmlns="http://www.w3.org/2000/svg" xmlns:xlink="http://www.w3.org/1999/xlink" xmlns:inkscape="http://www.inkscape.org/namespaces/inkscape" version="1.1" width="612" height="792" viewBox="0 0 612 792">
<text xml:space="preserve" transform="matrix(1 0 -0 1 0 792)" font-size="24.7871" font-family="CMBX12" font-weight="bold"><tspan y="-738.787" x="239.759 270.86683 295.65394 316.72297 324.48133 335.4868 350.97874 364.53727">HSVishal</tspan></text>
<text xml:space="preserve" transform="matrix(1 0 -0 1 0 792)" font-size="9.9626" font-family="CMR10"><tspan y="-725.83499" x="114.606 119.5873 124.5686 129.5499 134.53119 139.51248 144.49378 149.47507 154.45636 159.43766">9493054706</tspan></text>
<text xml:space="preserve" transform="matrix(1 0 -0 1 0 792)" font-size="9.9626" font-family="CMSY10" font-style="italic"><tspan y="-725.83499" x="167.74">|</tspan></text>
<text xml:space="preserve" transform="matrix(1 0 -0 1 0 792)" font-size="9.9626" font-family="CMR10"><tspan y="-725.83499" x="173.82901 179.36821 183.29347 188.55373 191.32334 195.2486 200.7878 205.76909 208.5387 213.51999 218.50128 226.25218 231.23348 239.53232 244.51361 247.28322 250.05283 252.82244 257.24583 262.2271">hsvishal26@gmail.com</tspan></text>
<text xml:space="preserve" transform="matrix(1 0 -0 1 0 792)" font-size="9.9626" font-family="CMSY10" font-style="italic"><tspan y="-725.83499" x="273.84303">|</tspan></text>
<text xml:space="preserve" transform="matrix(1 0 -0 1 0 792)" font-size="9.9626" font-family="CMR10"><tspan y="-725.83499" x="279.93104 282.70063 285.4702 291.00944 295.99073 300.41413 305.95335 308.72294 314.26216 317.03175 321.45515 326.43644 334.7353 339.71659 342.48619 348.0254 353.00669 358.26695 361.03654 364.9618 370.501 375.4823 378.2519 381.56944 387.10865">linkedin.com/in/vishal-hs</tspan></text>
<text xml:space="preserve" transform="matrix(1 0 -0 1 0 792)" font-size="9.9626" font-family="CMSY10" font-style="italic"><tspan y="-725.83499" x="394.33604">|</tspan></text>
<text xml:space="preserve" transform="matrix(1 0 -0 1 0 792)" font-size="9.9626" font-family="CMR10"><tspan y="-725.83499" x="400.42405 405.40534 408.17494 412.05039 417.31065 422.84986 428.38908 431.15867 435.58207 440.56336 448.8622 453.8435 461.31547 464.08506 468.0103 473.54954 478.53083 481.3004 484.61796 490.15718 493.4747">github.com/Vishal-h-s</tspan></text>
<text xml:space="preserve" transform="matrix(1 0 -0 1 0 792)" font-size="11.9552" font-family="CMCSC10"><tspan y="-673.92898" x="36.00003 44.87079 52.330835 59.65937 66.72489 73.25243 80.317958 83.92843 91.53194">Education</tspan></text>
<path transform="matrix(1,0,0,-1,36,122.45502)" stroke-width=".398" stroke-linecap="butt" stroke-miterlimit="10" stroke-linejoin="miter" fill="none" stroke="#000000" d="M0 0H540"/>
<text xml:space="preserve" transform="matrix(1 0 -0 1 0 792)" font-size="10.9091" font-family="CMBX10" font-weight="bold"><tspan y="-656.033" x="46.8 56.629098 62.378194 67.330928 74.30184 80.05094 90.85095 102.76369 108.51278 118.9637 125.236438 130.40735 133.88735 139.98554 147.65464 152.411 159.38191 164.33464 169.21102 172.69101 177.56739 184.5383 189.41468 199.34197 205.6147 213.622 221.31291 227.06201 232.28748 239.25839 246.22931 252.50205 255.98204 262.25477 268.5275 274.10206 281.76026 291.57844 298.20027 305.17118 310.92027 316.0912 322.18937 329.16029 335.25846">KeshavMemorialInstituteofTechnology,Hyderabad</tspan></text>
<text xml:space="preserve" transform="matrix(1 0 -0 1 0 792)" font-size="10.9091" font-family="CMR10"><tspan y="-656.033" x="475.81199 483.9938 489.1429 498.54658 504.00114 509.4557 514.9102 520.36477 534.9066 542.3357 546.61209 551.4557 555.75387 560.5975 566.3574">Nov2022&#x2014;Present</tspan></text>
<text xml:space="preserve" transform="matrix(1 0 -0 1 0 792)" font-size="9.9626" font-family="CMTI10" font-style="italic"><tspan y="-642.48306" x="46.799989 53.81366 56.872179 63.23828 67.31298 71.895778 80.553279 84.627979 91.7612 96.85209 105.001499 110.092388 115.4423 118.749889 123.33268 131.1035 136.70249 141.28528 144.3438 148.92659 154.52558 158.59032 166.73972 177.94763 184.70227 190.30126 194.88405 197.94257 203.54155 207.61626 212.19905 216.40328 219.46179 225.06078 229.64357 528.3024 536.0135 542.00106 549.40328 556.0284 561.11929 564.1778">B.Tech(ComputerScience&#x0026;Engineering)GPA:8.2</tspan></text>
<text xml:space="preserve" transform="matrix(1 0 -0 1 0 792)" font-size="10.9091" font-family="CMBX10" font-weight="bold"><tspan y="-623.87307" x="46.799989 56.61818 62.716367 67.88728 73.63638 79.90912 86.00731 92.978229 103.26551 109.745517 116.71643 123.68735 127.16735 133.44008 142.78919 151.85465 158.12738 161.60738 165.08737 170.83647 177.1092 182.8583 190.5165 200.33469 206.95652 213.92743 219.67653 224.84745 230.94564 237.91655 244.01474">NarayanaJuniorCollege,Hyderabad</tspan></text>
<text xml:space="preserve" transform="matrix(1 0 -0 1 0 792)" font-size="10.9091" font-family="CMR10"><tspan y="-623.87307" x="460.146 465.75328 471.81874 474.85145 484.24418 489.69874 495.1533 500.60786 509.70606 524.2479 534.2516 539.40066 548.7934 554.2479 559.70248 565.157">July2020&#x2014;May2022</tspan></text>
<text xml:space="preserve" transform="matrix(1 0 -0 1 0 792)" font-size="9.9626" font-family="CMTI10" font-style="italic"><tspan y="-610.32406" x="46.799989 50.64555 56.24453 59.552114 64.13491 68.33913 76.48853 80.56323 85.65412 88.71264 93.80353 97.111118 105.26052 108.31904 117.47467 126.411128 133.16577 143.8656 147.9403 155.07353 160.67252 167.68619 171.53176 178.28639 550.91 556.00088 561.09176">IntermediateinMPC(TSBIE)97%</tspan></text>
<text xml:space="preserve" transform="matrix(1 0 -0 1 0 792)" font-size="11.9552" font-family="CMCSC10"><tspan y="-573.88" x="36 43.304628 50.633165 59.563699 68.49423 75.82277 82.2188">Summary</tspan></text>
<path transform="matrix(1,0,0,-1,36,222.50403)" stroke-width=".398" stroke-linecap="butt" stroke-miterlimit="10" stroke-linejoin="miter" fill="none" stroke="#000000" d="M0 0H540"/>
<text xml:space="preserve" transform="matrix(1 0 -0 1 0 792)" font-size="9.9626" font-family="CMR10"><tspan y="-552.073" x="36 43.192998 48.174299 56.473146 62.012353 67.55156 71.42701 75.8504 83.07329 88.612499 93.03589 95.80549 100.22888 105.76809 110.19148 117.94238 121.867649 125.743099 131.2823 136.8215 141.2449 146.50516 153.69817 160.89116 163.66077 167.53623 176.40294 184.70178 188.62705 193.60834 196.37795 199.14756 208.0043 211.05286 216.03415 221.57335 227.11255 232.65175 237.63304 241.5085 244.2781 249.2594 258.11616 260.88575 269.75248 275.2917 279.18708 284.16838 289.1596 293.055 298.0363 306.3451 314.64396 317.41355 322.9428 327.9241 334.0212 339.56044 344.54173 348.41719 356.716 360.64128 364.51673 368.42207 373.96128 378.38468 382.26014 387.79936 391.70469 396.12809 400.05335 406.14048 411.12178 416.66099 425.5277 428.57627 434.11549 436.88508 442.9722 446.89747 450.77293 455.7542 459.89866 468.48643 472.41169 477.39299 480.44154 484.03804 490.95207 495.93336 499.83869 507.57963 513.11886 517.54226 522.5335 526.9569 529.7265 534.7078 540.247 548.54586 552.96926 558.2295 562.1049">ComputerSciencestudentwithasolidfoundationinprogramming,datastructures,andfullstacksoftwaredevelopment.</tspan><tspan y="-540.118" x="36 39.5965 44.856756 48.732206 53.155599 57.060937 61.48433 65.40959 69.28504 73.708438 82.57515 85.34475 94.2015 98.10684 103.08814 108.62735 111.39695 116.93616 119.70576 128.28356 136.5824 141.56369 145.48896 149.36441 153.78781 157.69315 160.46276 166.00196 174.3008 179.84 184.2634 194.7839 198.65937 203.08277 207.22722 212.76642 218.30562 223.28691 226.05652 231.03781 236.0191 238.78871 243.21212 247.13738 253.22454 255.99414 261.53337 265.95677 268.72636 274.26557 279.80479 282.57438 288.1136 296.4224 300.8458 309.14466 313.56806 317.4734 322.45469 325.22428 330.7635 339.06233 344.0436 347.94895 352.37236 357.35365 364.59645 368.5217 374.0609 378.21534 387.07209 392.05339 399.29618 404.27748 408.70088 414.24009 418.66349 422.56883 427.5501 431.42558 434.19517 439.17646 446.92738 454.39933 461.31336 466.29466 471.83387 480.6906 485.6719 491.21113 496.75035 499.51994 504.78019 507.54978 513.089 521.3978 526.37918 531.91836 536.89968 539.66928 544.9295 548.80496 551.5745 555.9979 560.97927">Interestedinrapidlymasteringnewtechnologies,includingemergingareassuchasgenerativeAIandapplyinganalytical</tspan><tspan y="-528.16299" x="36 39.87545 45.414659 48.18426 53.72347 58.983724 61.753328 67.292537 75.59138 79.46683 87.76567 91.7009 96.6822 99.4518 104.4331 112.174037 116.59743 121.57873 129.87758 135.41678 138.18639 142.60979 151.18759 156.72679 160.63213 165.61342 171.15262 173.92223 178.34563 186.64447 190.56974 197.7727 204.9657 209.94699 218.24584 226.54468 229.31429 233.18975 237.0652 241.4886 250.34535 254.22081 262.52964 266.95304 271.93434 277.19459 281.07005 283.83964 289.09989 294.6391 299.6204 305.1596 312.4024 315.172 319.5954 324.5767 328.48204 334.02125 336.79084 342.33006 350.63887 355.62016 361.15937 370.0161 375.55534 379.97874 382.74833 385.5179 390.4992 394.9226 398.82795 407.40574 412.38703 418.7631 424.3023 427.0719 432.0532 437.5924 440.90995 446.1702 451.69947 456.68077 459.45036 462.21995 465.82643 474.4042 478.32948 483.31077 486.08036 491.61958 495.49504 498.26463 503.2459 508.78514 516.02798 523.22097 525.99057 529.86599 538.73269 547.03158 550.08016 555.3404 559.7638 565.303">thinkingtosolvecomplexproblems.Committedtocontinuouslearninganddeliveryofhigh-qualitysolutionswithafocus</tspan><tspan y="-516.20797" x="36 40.9813 49.838056 52.60766 58.146867 63.686075 68.38842 73.10073 78.08203 81.95748 84.72708 89.70838 98.56513 103.54643 109.08564 117.94239 123.4816 127.40686 132.38816 137.92736 140.69696 143.46657 146.23618 149.83269">oninnovationandusability</tspan></text>
<text xml:space="preserve" transform="matrix(1 0 -0 1 0 792)" font-size="11.9552" font-family="CMCSC10"><tspan y="-479.84297" x="36 44.870759 51.80477 59.40828 64.47729 71.14829 78.21381 85.279338">Projects</tspan></text>
<path transform="matrix(1,0,0,-1,36,316.54)" stroke-width=".398" stroke-linecap="butt" stroke-miterlimit="10" stroke-linejoin="miter" fill="none" stroke="#000000" d="M0 0H540"/>
<text xml:space="preserve" transform="matrix(1 0 -0 1 0 792)" font-size="9.9626" font-family="CMBX10" font-weight="bold"><tspan y="-461.07" x="46.8 55.07892 60.807416 67.173519 71.89579 80.16475 91.04391 96.613 102.9791 108.548198 114.27669 119.52698 129.07115 134.32144 140.36875">CourtManagement</tspan></text>
<text xml:space="preserve" transform="matrix(1 0 -0 1 0 792)" font-size="9.9626" font-family="CMSY10" font-style="italic"><tspan y="-461.07" x="148.141">|</tspan></text>
<text xml:space="preserve" transform="matrix(1 0 -0 1 0 792)" font-size="9.9626" font-family="CMTI10" font-style="italic"><tspan y="-461.07" x="154.229 160.98366 165.05837 170.14926 174.73206 178.03964 184.66477 191.4194 196.04206 201.13294 204.82907 209.41187 213.48657 217.55132 220.60984 223.66835 227.74306 234.36818 243.30463 248.39551 253.99449 258.5773 263.66819 271.18995">React,Express.js,MongoDB</tspan></text>
<text xml:space="preserve" transform="matrix(1 0 -0 1 0 792)" font-size="5.9776" font-family="CMSY6" font-style="italic"><tspan y="-449.583" x="61.526">&#x2022;</tspan></text>
<text xml:space="preserve" transform="matrix(1 0 -0 1 0 792)" font-size="9.9626" font-family="CMR10"><tspan y="-448.517" x="70.8 78.41143 82.83482 87.816127 92.23952 95.00912 99.99042 105.80858 110.23197 119.08872 127.39753 131.30287 136.28417 139.05377 143.47718 146.79473 152.33393 157.31522 161.24048 165.66388 171.20308 177.29024 181.71364 186.69493 190.6202 198.36115 206.66996 211.65125 217.18048 222.16178 227.14307 231.57643 239.87528 244.29868 249.55893 256.75193 262.5701 267.5514 271.45674 275.33219 280.31349 283.08308 289.1702 293.5936 299.1328 304.1141 309.65333 312.4229 315.1925 320.73173 329.03056 333.45396 336.77149 339.54109 342.3107 345.0803 347.84989 353.3891 358.3704 364.4675 369.4488 374.988 378.86347 383.84477 392.14363 397.1249 401.00038 405.42378 414.28053 419.2618 423.18708 427.11235 429.88194 434.86323 440.40245 448.7013 453.1247 458.38496 462.2604 468.3575 473.3388 478.87803 487.73478 491.66004 496.08345 500.50685 506.04606 509.9514 517.6923 523.2315 528.49179 532.91519 538.45437 546.7532 551.1766 556.4368">Developedarole-based,casemanagementportal,enablinge-filing,automatedassignment,andsecuredocument</tspan><tspan y="-436.562" x="70.8 76.33921 81.32051 86.85972 92.398929 95.168529 97.938129 103.47733 108.45863">handling.</tspan></text>
<text xml:space="preserve" transform="matrix(1 0 -0 1 0 792)" font-size="5.9776" font-family="CMSY6" font-style="italic"><tspan y="-423.68003" x="61.526">&#x2022;</tspan></text>
<text xml:space="preserve" transform="matrix(1 0 -0 1 0 792)" font-size="9.9626" font-family="CMR10"><tspan y="-422.614" x="70.8 77.993007 82.974308 85.743907 88.513507 93.494808 99.312969 104.294269 108.19961 113.18091 117.05636 121.47975 130.3365 133.10611 141.96286 150.27167 153.32022 157.74362 162.72492 166.60037 172.13957 176.0449 180.4683 183.78586 189.32506 193.2304 196 200.98131 205.40471 214.26146 219.80066 224.22406 229.20537 233.62877 236.39838 241.37967 246.91887 255.21772 259.6411 264.91136 272.10435 277.64356 281.5489 286.80915 291.23255 295.65596 299.5812 303.50648 309.5936 314.017 318.9983 324.25856 328.134 332.03935 334.80894 340.34815 345.88737 349.76283 352.5324 358.07164 366.37046 370.2459 378.55473 384.3629 389.3442 393.21968 402.0864 405.13496 409.04029 414.02159 419.28184 423.1573 427.5807 433.1199 441.97666 445.8521 453.1846 457.608 462.5893 467.0127 474.21568 479.75489 484.73619 488.66145 493.9217 499.73988 504.72117 509.70246 513.6078 519.137 523.07229 530.26528 535.2466 540.78579">Collaboratedinafeature-drivendevelopmentprocess,contributingtobothfrontend(Reactdashboards)and</tspan><tspan y="-410.65904" x="70.8 76.33921 81.32051 85.46495 90.44625 94.869647 100.40885 109.275569 113.15102 119.93555 125.1958 130.735 134.64034 139.06374 142.989 146.91426 149.68387 152.73242 159.97524 167.44719 174.23172 177.82822 181.75348 185.62894">backend(Express.jsAPIs).</tspan></text>
<text xml:space="preserve" transform="matrix(1 0 -0 1 0 792)" font-size="5.9776" font-family="CMSY6" font-style="italic"><tspan y="-397.77705" x="61.526">&#x2022;</tspan></text>
<text xml:space="preserve" transform="matrix(1 0 -0 1 0 792)" font-size="9.9626" font-family="CMR10"><tspan y="-396.71104" x="70.8 78.41143 82.83482 86.760089 89.529689 94.51099 100.05019 104.47359 113.33034 118.31164 123.850849 127.726299 130.4959 138.79474 143.77603 149.87316 159.00887 163.99016 169.52936 174.51065 179.49195 187.10337 197.47444 201.3997 205.54416 211.08336 215.50676 223.8056 228.7869 236.03968 239.91513 245.45433 249.3796 253.803 257.70835 261.02589 264.9312 269.9125 272.6821 280.42304 288.7219 293.7032 299.2424 304.78163 307.5512 313.09043 318.07173 324.15885 328.58226 333.56355 337.4888 345.23973 350.77894 353.54853 357.4738 361.34925 366.33055 370.23588 374.65928 380.75639 385.73768 391.2769 395.15235 403.45118 407.3565 411.7799 416.7612 420.68647 424.61174 427.38133 432.3626 437.90184 446.20069 450.62409 455.88435 459.7598 466.96278 474.15577 476.92536 480.8008 489.65757 498.79328 503.77458 509.31379 514.2951 519.55538 524.5367 528.462">DesignedoptimalMongoDBschemas(user-rolemapping,casehistory,autoreassignment)withMongoose</tspan><tspan y="-384.75605" x="70.8 79.09885 81.86845 87.40765 92.94686 95.71646 100.139858 107.0539 112.0352 115.940547 120.36394">middleware.</tspan></text>
<text xml:space="preserve" transform="matrix(1 0 -0 1 0 792)" font-size="5.9776" font-family="CMSY6" font-style="italic"><tspan y="-371.87406" x="61.526">&#x2022;</tspan></text>
<text xml:space="preserve" transform="matrix(1 0 -0 1 0 792)" font-size="9.9626" font-family="CMR10"><tspan y="-370.80906" x="70.8 77.85352 83.39273 86.16233 88.93193 96.12492 100.050189 104.47358 108.89697 114.43618 118.34152 126.09242 133.4249 140.20943 145.74863 152.94162 155.99018 161.52938 167.61653 175.08849 181.87302 185.46952 192.71233 199.90532 202.67493 206.55039 215.4171 220.53787 230.76946 241.28997 246.27126 251.81046 255.68592 261.22514 265.64854 270.90879 274.78425 277.55384 281.97724 286.95854 290.83399 293.60359 298.58488 307.44163 310.49018 315.47148 322.7043 327.12773 332.109 336.03428 343.7752 346.5448 349.31443 352.084 354.8536 360.39283 365.3741 371.46125 377.00047 382.2607 386.6841 392.22334 400.5222 404.9456 410.20585 417.4088 422.94804 428.4773 431.2469 436.22819 441.20948 446.7487 450.67396 456.77107 461.75236 467.29158 476.14833 480.07359 484.49699 488.42225 492.3475 495.1171 500.0984 508.95515 514.77328 519.19668 523.102 527.0273 529.7969 533.72219 537.5976 542.021 547.5602 551.9836 556.407">BuiltsecureRESTfulAPIswithJWTauthenticationforcasefiling,documentuploads,andsessionpersistence.</tspan></text>
<text xml:space="preserve" transform="matrix(1 0 -0 1 0 792)" font-size="9.9626" font-family="CMBX10" font-weight="bold"><tspan y="-340.52207" x="46.800004 53.166105 62.710275 68.279369 73.00164 81.2706 89.101207 92.279277 97.848369 103.89567 112.17459 121.18078 127.54688 133.11598 137.83826">SmartPlantGuard</tspan></text>
<text xml:space="preserve" transform="matrix(1 0 -0 1 0 792)" font-size="9.9626" font-family="CMSY10" font-style="italic"><tspan y="-340.52207" x="147.525">|</tspan></text>
<text xml:space="preserve" transform="matrix(1 0 -0 1 0 792)" font-size="9.9626" font-family="CMTI10" font-style="italic"><tspan y="-340.52207" x="153.614 160.36864 165.96762 172.72226 177.81314 182.90402 189.52915 198.46559 203.30742 208.9064 216.54772 222.79427 229.40943 236.54265 241.63355 245.32968 250.42057 258.56999 263.66087 271.18263 278.1963 284.82145 290.5599 295.6508 301.24977 305.83256 312.96577 318.05665 323.14753 326.20606 331.80503 338.43019 344.93577 347.48619 352.57707 356.65177 361.23457 367.84974 374.35533 376.90574 382.25566 385.56324 388.87083 393.4536">ESP32,MySQL,ChromaDB,LangChain,Flask,Flutter</tspan></text>
<text xml:space="preserve" transform="matrix(1 0 -0 1 0 792)" font-size="5.9776" font-family="CMSY6" font-style="italic"><tspan y="-329.03507" x="61.526">&#x2022;</tspan></text>
<text xml:space="preserve" transform="matrix(1 0 -0 1 0 792)" font-size="9.9626" font-family="CMR10"><tspan y="-327.96907" x="70.8 77.58453 83.12374 88.10504 90.87464 96.41385 100.83724 105.260639 109.16598 113.58937 122.44612 127.42742 136.29415 139.89064 144.87194 152.06493 155.38248 159.80588 165.34508 170.32637 175.86557 178.63518 183.05858 191.91533 197.45453 200.22414 205.20543 210.46569 217.65869 222.08209 227.06339 230.96872 238.71964 243.70093 247.62619 251.55146 254.32106 258.24635 262.1218 267.1031 272.36335 279.55635 284.82658 293.40437 297.32963 301.20509 305.1104 309.5338 314.5151 322.81398 325.58357 331.12278 339.4216 346.20616 351.74537 358.5299 363.5112 371.81004 375.7353 380.16865 385.6979 389.63313 394.6144 401.83729 407.3765 412.3578 416.23326 424.53208 428.40754 432.3328 437.3141 440.08369 446.1708 454.46968 459.45097 462.22056 466.15577 470.03123 475.5605 479.46583 483.88923 489.98634 493.8618 498.2852 506.58406 512.40219 516.82559 520.7309 525.7122 529.58767 535.12686 539.03219 543.45559 549.5427 552.3123 555.0819 560.06326 565.3235 569.1989">EngineeredanIoT-enabledplantcareassistantbystreamingESP32sensordata(soilmoisture,temperature,light,</tspan><tspan y="-316.01408" x="70.8 79.09885 81.86845 87.40765 91.83105 95.73639 100.71769 103.48729 110.730098 118.20204 124.98657 132.73748 139.94045 142.71006 147.9703 151.84577 160.1446 169.28032 174.54058 180.07978 187.83068 197.37485 200.4234 205.4047 212.63755 216.54288 220.96628 225.94757 228.71718 232.03473 235.91019 238.6798 246.97864 254.71959 263.01844 267.99974 273.53895 276.30854 280.184 285.16529 289.07063 291.8402 297.37944">mineralsNPK)intoMySQLforreal-timemonitoring</tspan></text>
<text xml:space="preserve" transform="matrix(1 0 -0 1 0 792)" font-size="5.9776" font-family="CMSY6" font-style="italic"><tspan y="-303.13209" x="61.526">&#x2022;</tspan></text>
<text xml:space="preserve" transform="matrix(1 0 -0 1 0 792)" font-size="9.9626" font-family="CMR10"><tspan y="-302.06608" x="70.8 74.3965 79.65675 83.5322 87.9556 92.9369 96.84224 101.82354 105.69899 110.12238 118.97913 127.28794 134.62042 141.81343 152.95163 158.49083 161.26044 167.07859 171.50199 174.27159 177.0412 182.5804 190.32135 194.19681 200.42343 205.40473 210.94393 215.92522 223.11821 228.65741 233.6387 236.40831 245.27503 256.34349 262.5701 268.79673 273.778 282.91374 293.70323 298.6845 304.78163 312.53254 315.30213 318.07173 323.053 331.35188 336.33317 343.52616 350.71916 353.48875 357.3642 366.22096 373.41395 378.95317 382.8585 387.83979 396.13865 401.11994 408.73136 419.1124 424.37266 429.91188 434.6142 441.8072 444.57679 449.00019 454.5394 459.5207 467.26164 471.68504 479.70494 485.5231 489.9465 495.48573 501.02494 503.79454 509.33375 514.31509 521.5579 525.43338 533.7422 539.2814 543.7048 546.47439 549.24398 554.2253 558.6487">IntegratedaRAGpipeline(LangChain+LLaMA3,Ollama)withChromaDBknowledgeembeddingstodeliver</tspan><tspan y="-290.11109" x="70.8 75.2234 80.2047 85.46495 89.3404 93.763797 99.02405 102.8995 106.21704 110.91939 117.8434 122.8247 126.73004 134.471 140.0102 142.7798 147.7611 153.02135 160.22432 164.64772 169.62902 173.53435 181.2753 186.25659 191.79579 197.05605 199.82566 204.24906 208.67246">context-awareplantcareadvice.</tspan></text>
<text xml:space="preserve" transform="matrix(1 0 -0 1 0 792)" font-size="5.9776" font-family="CMSY6" font-style="italic"><tspan y="-277.2291" x="61.526">&#x2022;</tspan></text>
<text xml:space="preserve" transform="matrix(1 0 -0 1 0 792)" font-size="9.9626" font-family="CMR10"><tspan y="-276.1631" x="70.8 77.85352 83.39273 86.16233 88.93193 96.12492 104.43373 110.93931 113.70891 119.23815 123.1136 126.98905 131.42241 138.6453 146.94414 151.92543 157.46463 160.23424 163.00385 170.7448 175.72609 181.26529 190.12204 193.1706 198.15189 205.38474 208.15435 210.92395 215.90526 223.64621 231.94506 236.36846 240.24391 244.14925 246.91886 251.34226 255.26752 261.36463 266.90385 271.32725 276.30854 279.07814 282.95359 291.81034 296.79164 299.56123 303.98463 307.88996 311.7654 315.69068 321.7778 326.7591 332.2983 341.16505 345.30949 350.8487 355.83 359.70545 365.52363 370.5049 374.38038 377.6979 383.22718 388.20848 392.14369 396.56709 405.42384 409.32917 413.75257 418.17597 423.15727 431.45613 439.75498 444.17839 449.7176 455.2568 460.2381 464.11357 466.88316 471.86445 477.40367 481.32893">BuiltaFluttermobileappforlivemetrics,healthalerts,andchatbot-basedrecommendations.</tspan></text>
<text xml:space="preserve" transform="matrix(1 0 -0 1 0 792)" font-size="11.9552" font-family="CMCSC10"><tspan y="-235.81409" x="36.000005 45.39679 52.06779 59.133317 66.46185 73.79039 77.40086 84.466388 91.79492 102.44701 109.75163 117.35514 120.965618 127.09863 133.23165">TechnicalSkills</tspan></text>
<path transform="matrix(1,0,0,-1,36,560.57)" stroke-width=".398" stroke-linecap="butt" stroke-miterlimit="10" stroke-linejoin="miter" fill="none" stroke="#000000" d="M0 0H540"/>
<text xml:space="preserve" transform="matrix(1 0 -0 1 0 792)" font-size="9.9626" font-family="CMBX10" font-weight="bold"><tspan y="-217.937" x="46.8 53.69412 59.26321 65.62931 71.3578 77.72391 83.293 89.02149 94.27178 102.61047 108.179569 114.54567 124.73741 128.23429 132.95656 138.52565 148.06983 153.32012 161.28023 167.00873 171.731 177.7783">Languagesandframeworks</tspan></text>
<text xml:space="preserve" transform="matrix(1 0 -0 1 0 792)" font-size="9.9626" font-family="CMR10"><tspan y="-217.937" x="182.28 189.473 194.59378 199.30608 204.00843 208.98972 215.07688 222.26987 228.36699 235.55998 243.31089 251.06179 257.14894 263.93348 269.19374 273.06919 278.6084 283.5897 289.1289 295.21604 300.75526 308.50617 314.7328 320.81993 325.9407 330.653 335.35539 340.33668 345.8759 350.2993 354.20463 356.9742 362.51344 366.3889 372.476 379.94798 387.14097 396.27668 402.5033 407.4846 414.67759 420.2168">:Java,C,C++,Python,SQL,JavaScript,HTML/CSS</tspan></text>
<text xml:space="preserve" transform="matrix(1 0 -0 1 0 792)" font-size="9.9626" font-family="CMBX10" font-weight="bold"><tspan y="-205.982" x="46.800004 57.689126 62.939416 73.12119 80.14482 85.39511 90.1672 96.5333 102.89941 108.6279 111.80597 117.53446 123.262958 126.441028 131.69132">WebTechnologies</tspan></text>
<text xml:space="preserve" transform="matrix(1 0 -0 1 0 792)" font-size="9.9626" font-family="CMR10"><tspan y="-205.982" x="136.215 143.408 150.74048 155.16388 160.15514 164.57854 168.454 171.2236 174.26219 178.19742 184.28458 191.0691 196.32936 201.86856 205.7739 210.1973 214.12256 218.04782 220.81743 223.86598 227.79125 233.8784 240.38399 243.1536 248.6928 252.56826 256.4437 260.8671 264.77244 270.85957 279.99528 285.25553 290.79475 298.54566 304.77229 310.8694 320.0051 324.9864 330.5256 335.5069 340.4882 348.0996 355.15315 361.24028 368.57276 372.99617 376.92143 380.79689 388.26884 395.05339">:React.js,Express.js,Flutter,MySQL,MongoDB,RestAPI</tspan></text>
<text xml:space="preserve" transform="matrix(1 0 -0 1 0 792)" font-size="9.9626" font-family="CMBX10" font-weight="bold"><tspan y="-194.027" x="46.799997 55.58701 60.8373 66.8846 70.70027 76.428768 82.79487">Dev-ops</tspan></text>
<text xml:space="preserve" transform="matrix(1 0 -0 1 0 792)" font-size="9.9626" font-family="CMR10"><tspan y="-194.027" x="87.314998 94.50799 100.874088 111.11564 116.65485 122.75195 130.36338 134.78678 138.71204 141.48165 146.46294 155.31969 161.82527 166.80657 170.68202 174.55748 178.98088 182.88622 188.42542 192.35068 198.43784 206.26845 209.02809 212.90355 219.00067 226.61209 231.87233 236.01679 240.9981 245.4215 249.32683 255.41399 260.53477 264.95817 270.49739 275.75764 278.52723 284.06645">:AWS,DesignPatterns,Git,Docker,Jenkins</tspan></text>
</svg>
